<?xml version="1.0" encoding="UTF-8"?>
<svg id="Layer_2" data-name="Layer 2" xmlns="http://www.w3.org/2000/svg" xmlns:xlink="http://www.w3.org/1999/xlink" viewBox="0 0 135.57 135.57">
  <defs>
    <style>
      .cls-1 {
        fill: #fff;
      }

      .cls-2 {
        fill: #c28461;
      }

      .cls-3 {
        fill: #1e0a05;
      }

      .cls-4 {
        stroke-width: .78px;
      }

      .cls-4, .cls-5, .cls-6 {
        fill: none;
      }

      .cls-4, .cls-6 {
        stroke: #1e0a05;
        stroke-linecap: round;
        stroke-linejoin: round;
      }

      .cls-7 {
        fill: #161f3f;
      }

      .cls-8 {
        fill: #4570b4;
      }

      .cls-9 {
        fill: #171717;
      }

      .cls-10 {
        clip-path: url(#clippath);
      }

      .cls-11 {
        fill: #d3445b;
      }

      .cls-6 {
        stroke-width: .84px;
      }

      .cls-12 {
        fill: #dba884;
      }
    </style>
    <clipPath id="clippath">
      <circle class="cls-5" cx="67.79" cy="67.79" r="67.79"/>
    </clipPath>
  </defs>
  <g id="Layer_1-2" data-name="Layer 1">
    <g>
      <circle id="SVGID" class="cls-1" cx="67.79" cy="67.79" r="67.79"/>
      <g class="cls-10">
        <g>
          <path class="cls-9" d="M38.16,28.36s-19.45,57.33,22.58,73.99c38.55,15.28,59.59-1.62,53.02-20.35-8.81-25.12-36.32,6.24-28.14-32.74L38.16,28.36Z"/>
          <path class="cls-9" d="M37.13,34.82c-.35,14.76,12.56,27.04,28.81,27.42,16.26,.38,26.34-11.21,27.21-25.96,1.13-19.04-9.71-27.13-25.96-27.51-16.26-.38-29.72,11.28-30.06,26.05Z"/>
          <path class="cls-2" d="M84.11,48.06c1.07,3.86,5.07,6.12,8.93,5.05,3.86-1.07,6.12-5.07,5.05-8.93-1.07-3.86-5.07-6.12-8.93-5.05-3.86,1.07-6.12,5.07-5.05,8.93Z"/>
          <polygon class="cls-12" points="73.36 61.87 72.14 89.5 51.7 87.85 57.03 46.16 73.36 61.87"/>
          <polygon class="cls-2" points="72.72 76.44 58.38 59.13 73.36 61.87 72.72 76.44"/>
          <path class="cls-12" d="M89.89,20.21c1.79,1.59,2.91,3.78,3.32,6.14,1.22,6.97,3.66,19.25,1.04,26.55-3.42,9.5-11.35,16.1-23.85,13.42,0,0-15.02-1.87-17.67-21.01-4.22-30.49,21.82-38.7,37.17-25.1Z"/>
          <path class="cls-4" d="M85.22,43.21l1.59,5.36c.08,.4-.17,.79-.56,.88l-1.8,.29"/>
          <path class="cls-3" d="M73.7,40.29c-.06,.97,.68,1.81,1.66,1.87,.97,.06,1.81-.68,1.87-1.66,.06-.97-.68-1.81-1.66-1.87-.97-.06-1.81,.69-1.87,1.66Z"/>
          <path class="cls-3" d="M87.82,42.06c-.05,.9,.64,1.68,1.54,1.74,.9,.05,1.68-.64,1.74-1.54s-.64-1.68-1.54-1.74c-.9-.06-1.68,.63-1.74,1.54Z"/>
          <path class="cls-3" d="M79.88,29.21l-11.14,3.56s2.48-3.4,5.69-4.41c3.21-1.01,5.45,.85,5.45,.85Z"/>
          <path class="cls-3" d="M86.82,31.57l7.01,2.26s-1.2-3-3.23-3.64c-2.02-.64-3.78,1.37-3.78,1.37Z"/>
          <polygon class="cls-7" points="61.07 28.79 58.58 44.5 45.43 36.18 61.07 28.79"/>
          <path class="cls-8" d="M56.14,41.5s6.31-18.38,20.7-22.25c4.4-1.18,9.17-.61,12.83,2.1,1.2,.89,2.33,2.04,3.16,3.51,0,0,.06-13.63-19.67-13.89s-23.28,19.73-21.37,28.14l4.33,2.39Z"/>
          <g>
            <path class="cls-12" d="M44.42,48.43c1.09,3.91,5.14,6.2,9.05,5.11,3.91-1.09,6.2-5.14,5.11-9.05-1.09-3.91-5.14-6.2-9.05-5.11-3.91,1.09-6.2,5.14-5.11,9.05Z"/>
            <path class="cls-4" d="M48.28,44.46s5.47-1.68,6.42,4.34"/>
          </g>
          <path class="cls-11" d="M80.11,135.38l2.22-47.02s25.58,7.25,27.4,47.17"/>
          <g>
            <path class="cls-11" d="M90.48,94.01l.96,5.44s11.56,15.26,.34,36.09l-58.1-.75-6.16-25.34c-1.86-6.26-3.94-13.65,2.01-16.34l11.86-5.5,41.08,.73,3.61,1.32c2.03,.74,3.64,2.33,4.41,4.35Z"/>
            <polygon class="cls-12" points="58.38 79.51 41.37 87.6 73.36 102.35 82.46 88.33 58.38 79.51"/>
            <path class="cls-6" d="M94.56,128.91s7.1-11.4-3.13-29.47"/>
          </g>
          <path class="cls-11" d="M28.68,93.55s-8.13,3.71-11.63,12.22c-3.49,8.51-7.29,29.02-7.29,29.02h29.78l-10.86-41.24Z"/>
          <path class="cls-6" d="M36,133.87s3.44-20.71-2.33-31.52"/>
          <path class="cls-1" d="M83.13,54.41l-9.11-1.91s.47,4.61,4.44,5.29c2.91,.5,4.67-3.38,4.67-3.38Z"/>
        </g>
      </g>
    </g>
  </g>
</svg>