<?xml version="1.0" encoding="UTF-8"?>
<svg id="Layer_2" data-name="Layer 2" xmlns="http://www.w3.org/2000/svg" xmlns:xlink="http://www.w3.org/1999/xlink" viewBox="0 0 135.57 135.57">
  <defs>
    <style>
      .cls-1, .cls-2 {
        fill: #fff;
      }

      .cls-3 {
        fill: #28466d;
      }

      .cls-4 {
        stroke: #934453;
        stroke-width: 2.21px;
      }

      .cls-4, .cls-5, .cls-6, .cls-7 {
        fill: none;
      }

      .cls-4, .cls-5, .cls-7 {
        stroke-linecap: round;
        stroke-linejoin: round;
      }

      .cls-8 {
        fill: #934453;
      }

      .cls-5 {
        stroke: #d68a65;
        stroke-width: 1.44px;
      }

      .cls-9 {
        fill: #a8527e;
      }

      .cls-2 {
        isolation: isolate;
        opacity: .26;
      }

      .cls-10 {
        fill: #171717;
      }

      .cls-11 {
        clip-path: url(#clippath);
      }

      .cls-12 {
        fill: #d68a65;
      }

      .cls-13 {
        fill: #edb892;
      }

      .cls-14 {
        fill: #d3445b;
      }

      .cls-15 {
        fill: #ef758d;
      }

      .cls-7 {
        stroke: #fff;
        stroke-width: 1.37px;
      }
    </style>
    <clipPath id="clippath">
      <circle class="cls-6" cx="67.79" cy="67.79" r="67.79"/>
    </clipPath>
  </defs>
  <g id="Layer_1-2" data-name="Layer 1">
    <g>
      <circle id="SVGID" class="cls-1" cx="67.79" cy="67.79" r="67.79"/>
      <g class="cls-11">
        <g>
          <path class="cls-1" d="M87.67,111.47l-.08,9.24-.12,14.24-.22,25.27H5.6l.09-2.4,14.57-26.57,13.15-23.99,10.4-18.97,4.11-.04h.6l19.46-.19h.01l4.74,5.65h.01l14.94,17.76Z"/>
          <g>
            <path class="cls-14" d="M53.33,124.92l-9.53-36.63c-2.49-.21-4.93-.27-7.29-.21-17.08,.44-22.2,3.87-27.14,8.61-5.07,4.86-16.24,18.08-23.02,63.54H53.06c.49-19.49,.27-35.3,.27-35.3Z"/>
            <polyline class="cls-4" points="16.18 160.22 19.53 147.28 22.6 135.43"/>
          </g>
          <g>
            <path class="cls-14" d="M76.61,92.55c-1.14-.67-2.25-1.22-3.24-1.74-3.1-1.63-5.22-2.66-5.39-2.73h-.01l2.82,14.3,4.36,22.19,.56,35.67h32.05c.4-47.99-15.71-58.54-31.15-67.68Z"/>
            <path class="cls-15" d="M70.59,103.26l4.57,21.3,12.95,10.95c2.04,1.72,5.12,.04,4.79-2.6l-1.42-11.15c-.47-3.67-1.77-7.19-3.8-10.29l-13.69-23.41-3.4,15.2Z"/>
          </g>
          <g>
            <path class="cls-8" d="M102.73,19.84c.09-.02,.17-.02,.25,0,.72,.21,4.28,1.45,3.36,5.67-1.02,4.7-16.27,14.25-26.71,8.31l3.82-10.27,19.28-3.72Z"/>
            <path class="cls-12" d="M83.57,58.93c.86,3.83,4.67,6.23,8.49,5.36s6.22-4.67,5.36-8.49c-.86-3.83-4.67-6.23-8.49-5.36-3.82,.86-6.22,4.66-5.36,8.49Z"/>
            <path class="cls-13" d="M76.86,75.2l-6.27,28.06-18.4-6.88c-3.42-1.28-5.25-4.99-4.19-8.48l10.5-34.41,18.36,21.71Z"/>
            <path class="cls-12" d="M74.6,85.33s-12.16-1.33-11.11-15.63l12.79,8.19-1.68,7.43Z"/>
            <path class="cls-13" d="M92.16,35.06s3.8,24.06,.02,33.27c-3.77,9.22-11.79,14.62-23.9,11.33,0,0-14.19-1.73-16.24-23.12-3.09-32.21,26.52-39.49,40.12-21.49Z"/>
            <path class="cls-10" d="M59.06,52.14s2.48-3.92-.03-14.55,26.29-10.35,33.12-2.52c0,0-4.59-11.87-21.79-12.49-17.2-.62-31.12,10.35-25.18,29.57l4.22,6.72,9.65-6.72Z"/>
            <path class="cls-10" d="M60.15,46.38s-1.32,14.02,10.63,16.5c7.63,1.58,15.35-4.02,22.54,.99,0,0-2.83,21.18-24.55,16.08-2.91-.68-5.59-2.08-7.85-4.04-4.41-3.83-10.74-11.63-6.98-22.87l6.21-6.66Z"/>
            <g>
              <path class="cls-13" d="M41.01,59.26c1.05,4.64,5.66,7.55,10.3,6.51,4.64-1.05,7.55-5.66,6.51-10.3-1.05-4.64-5.66-7.55-10.3-6.51-4.64,1.05-7.55,5.66-6.51,10.3Z"/>
              <path class="cls-5" d="M45.72,54.57s6.43-1.35,7.61,5.7"/>
            </g>
            <g>
              <path class="cls-10" d="M88.9,53.15c.17,.88,1.01,1.46,1.9,1.3s1.46-1.01,1.3-1.89-1.01-1.46-1.89-1.3c-.88,.17-1.46,1.01-1.3,1.89Z"/>
              <path class="cls-10" d="M75.19,52.43c.17,.88,1.01,1.46,1.89,1.3,.88-.17,1.46-1.01,1.3-1.9s-1.01-1.46-1.89-1.3c-.88,.17-1.46,1.01-1.3,1.9Z"/>
              <polyline class="cls-5" points="85.28 54.48 87.92 58.86 85.28 60.25"/>
              <path class="cls-10" d="M80.25,42.26h0c.09,1.32-.97,2.43-2.3,2.4-2-.06-4.92,.05-7.65,.84-1.02,.3-2.08-.23-2.42-1.23h0c-.32-.96,.2-1.9,1.08-2.4,1.81-1.02,4.66-2.51,9.34-1.67,1.05,.19,1.88,1.01,1.95,2.07Z"/>
              <path class="cls-10" d="M86.6,42.77h0c.05,1.29,.83,2.43,1.7,2.45,1.31,.03,3.24,.27,5.1,1.17,.69,.34,1.35-.13,1.49-1.1h0c.13-.93-.28-1.87-.9-2.4-1.27-1.08-3.26-2.67-6.28-2.07-.68,.14-1.15,.9-1.11,1.94Z"/>
              <g>
                <path class="cls-2" d="M82.56,51.55c-.06,4.75-3.86,8.55-8.51,8.5-4.64-.05-8.37-3.95-8.31-8.69,.06-4.75,3.86-8.55,8.51-8.5,4.65,.05,8.37,3.95,8.31,8.69Z"/>
                <path class="cls-2" d="M102.03,51.71c-.05,4.56-3.32,8.22-7.3,8.17-3.98-.05-7.17-3.78-7.11-8.34,.05-4.56,3.32-8.22,7.3-8.17,3.98,.05,7.17,3.78,7.11,8.34Z"/>
                <path class="cls-7" d="M82.56,51.55c-.06,4.75-3.86,8.55-8.51,8.5-4.64-.05-8.37-3.95-8.31-8.69,.06-4.75,3.86-8.55,8.51-8.5,4.65,.05,8.37,3.95,8.31,8.69Z"/>
                <path class="cls-7" d="M102.03,51.71c-.05,4.56-3.32,8.22-7.3,8.17-3.98-.05-7.17-3.78-7.11-8.34,.05-4.56,3.32-8.22,7.3-8.17,3.98,.05,7.17,3.78,7.11,8.34Z"/>
                <path class="cls-7" d="M82.56,51.55s2.55-2.13,5.06-.01"/>
                <line class="cls-7" x1="65.74" y1="51.36" x2="57.22" y2="52.61"/>
              </g>
              <path class="cls-1" d="M86.71,64.82l-7.51,.12s-.02,2.32,3.81,2.28c3.83-.04,3.7-2.41,3.7-2.41Z"/>
            </g>
            <g>
              <path class="cls-9" d="M49.9,19.61c.3,1.89,2.07,3.19,3.96,2.89s3.19-2.07,2.89-3.96-2.07-3.19-3.96-2.89-3.19,2.07-2.89,3.96Z"/>
              <path class="cls-3" d="M58.35,16.48c-12.57,5.05-18.98,18.59-14.37,30.29l42.52-23.73c-6.31-7.79-17.72-10.76-28.15-6.56Z"/>
              <path class="cls-15" d="M59.17,38.29s10.92-14.46,26.66-16.06l16.93-2.39s-13.09,4.83-18.27,10.39c-5.18,5.56-19.02,9.67-25.32,8.06Z"/>
            </g>
            <path class="cls-13" d="M70.59,103.26l1.43,6.67s-12.06,7.78-21.55-4.84l-2.47-17.18,22.59,15.36Z"/>
          </g>
          <path class="cls-15" d="M48,87.9s10.03,22.03,5.32,37.02c-1.35,4.3-14.15,11.16-14.15,11.16-3.49,3.29-9.18,.43-8.63-4.33l4.6-39.45c.74-6.39,6.75-11.04,13.04-9.71,.43,.09,.88,.2,1.33,.33l-1.52,4.98Z"/>
        </g>
      </g>
    </g>
  </g>
</svg>